<svg xml:space="preserve" viewBox="0 0 100 100" xmlns="http://www.w3.org/2000/svg" width="50px" height="50px" style="width:250px;height:250px;background-size:initial;background-repeat-y:initial;background-repeat-x:initial;background-position-y:initial;background-position-x:initial;background-origin:initial;background-image:initial;background-color:#f5f4fa;background-clip:initial;background-attachment:initial;animation-play-state:paused"><g class="ldl-scale" style="transform-origin:50% 50%;transform:rotate(0deg) scale(.8,.8);animation-play-state:paused"><path fill="#32517a" d="M77.149 92.5H21.923v-85h55.226a6.969 6.969 0 0 1 6.969 6.969V85.53a6.968 6.968 0 0 1-6.969 6.97z" style="fill:#2196f3;animation-play-state:paused"/><g style="animation-play-state:paused"><path fill="#e0e0e0" d="M64.952 48.34c-.054-.053-.11-.103-.164-.155a16.176 16.176 0 0 0-1.689-1.405c-.104-.076-.207-.152-.313-.225a16.412 16.412 0 0 0-.74-.48c-.102-.063-.201-.129-.304-.19a16.87 16.87 0 0 0-1.084-.589 17.321 17.321 0 0 0-1.286-.564 17.203 17.203 0 0 0-3.598-.992c-.071-.012-.143-.021-.214-.032a17.168 17.168 0 0 0-.997-.118c-.102-.009-.204-.02-.306-.027-.408-.029-.82-.049-1.236-.049-.416 0-.828.02-1.236.049-.103.007-.204.018-.306.027-.336.03-.668.069-.997.118-.071.011-.143.02-.214.032a17.235 17.235 0 0 0-3.598.992l-.166.065c-.38.155-.755.319-1.12.499-.37.183-.73.381-1.084.589-.103.061-.202.127-.304.19-.251.155-.499.313-.74.48-.106.073-.209.15-.313.225a16.499 16.499 0 0 0-1.69 1.406c-.054.051-.109.101-.162.153-2.965 2.895-4.801 6.857-4.801 11.239v10.758c0 2.219 1.874 4.018 4.185 4.018h25.094c2.311 0 4.185-1.799 4.185-4.018V59.578c-.001-4.382-1.837-8.343-4.802-11.238z" style="fill:#cdcdcd;animation-play-state:paused"/><circle fill="#fff" r="10.793" cy="36.439" cx="53.021" style="fill:#fff;animation-play-state:paused"/></g><path d="M15.881 7.5h3.653v85h-3.653z" fill="#32517a" style="fill:#2196f3;animation-play-state:paused"/></g></svg>